HIERARCHY
ROOT joint_Root
{
	OFFSET 0.0 0.0 0.0
	CHANNELS 6 Xposition Yposition Zposition Zrotation Xrotation Yrotation 
	JOINT Hips
	{
		OFFSET 4.5925 91.4895 -427.239
		CHANNELS 6 Xposition Yposition Zposition Zrotation Xrotation Yrotation 
		JOINT Spine
		{
			OFFSET 15.7357 0.0 0.0
			CHANNELS 6 Xposition Yposition Zposition Zrotation Xrotation Yrotation 
			JOINT Chest
			{
				OFFSET 8.98455 -0.406207 0.0
				CHANNELS 6 Xposition Yposition Zposition Zrotation Xrotation Yrotation 
				JOINT Neck
				{
					OFFSET 16.3773 0.0 0.0
					CHANNELS 6 Xposition Yposition Zposition Zrotation Xrotation Yrotation 
					JOINT Head
					{
						OFFSET 6.45672 0.0 0.0
						CHANNELS 6 Xposition Yposition Zposition Zrotation Xrotation Yrotation 
						End Site
						{
							OFFSET 0.0 0.0 0.0
						}
					}
				}
				JOINT Shoulder_L
				{
					OFFSET 12.9942 -0.242716 4.98039
					CHANNELS 6 Xposition Yposition Zposition Zrotation Xrotation Yrotation 
					JOINT UpperArm_L
					{
						OFFSET 5.34809 0.0 0.0
						CHANNELS 6 Xposition Yposition Zposition Zrotation Xrotation Yrotation 
						JOINT LowerArm_L
						{
							OFFSET 24.3286 1.87007e-05 0.0
							CHANNELS 6 Xposition Yposition Zposition Zrotation Xrotation Yrotation 
							JOINT Hand_L
							{
								OFFSET 22.2916 0.0 0.0
								CHANNELS 6 Xposition Yposition Zposition Zrotation Xrotation Yrotation 
								End Site
								{
									OFFSET 0.0 0.0 0.0
								}
							}
						}
					}
				}
				JOINT Shoulder_R
				{
					OFFSET 12.9945 -0.242716 -4.98039
					CHANNELS 6 Xposition Yposition Zposition Zrotation Xrotation Yrotation 
					JOINT UpperArm_R
					{
						OFFSET -5.34813 0.0 0.0
						CHANNELS 6 Xposition Yposition Zposition Zrotation Xrotation Yrotation 
						JOINT LowerArm_R
						{
							OFFSET -24.3289 0.000322201 0.0
							CHANNELS 6 Xposition Yposition Zposition Zrotation Xrotation Yrotation 
							JOINT Hand_R
							{
								OFFSET -22.2915 -0.000108084 0.0
								CHANNELS 6 Xposition Yposition Zposition Zrotation Xrotation Yrotation 
								End Site
								{
									OFFSET 0.0 0.0 0.0
								}
							}
						}
					}
				}
			}
		}
		JOINT UpperLeg_L
		{
			OFFSET -2.19248 -6.46944 0.0
			CHANNELS 6 Xposition Yposition Zposition Zrotation Xrotation Yrotation 
			JOINT LowerLeg_L
			{
				OFFSET 39.0811 0.0 -1.23785e-05
				CHANNELS 6 Xposition Yposition Zposition Zrotation Xrotation Yrotation 
				JOINT Foot_L
				{
					OFFSET 40.9854 0.0 -1.26872e-05
					CHANNELS 6 Xposition Yposition Zposition Zrotation Xrotation Yrotation 
					JOINT Toes_L
					{
						OFFSET 11.7543 0.0 0.0
						CHANNELS 6 Xposition Yposition Zposition Zrotation Xrotation Yrotation 
						End Site
						{
							OFFSET 0.0 0.0 0.0
						}
					}
				}
			}
		}
		JOINT UpperLeg_R
		{
			OFFSET -2.19251 6.46944 0.0
			CHANNELS 6 Xposition Yposition Zposition Zrotation Xrotation Yrotation 
			JOINT LowerLeg_R
			{
				OFFSET -39.0811 -0.00228153 -0.0401928
				CHANNELS 6 Xposition Yposition Zposition Zrotation Xrotation Yrotation 
				JOINT Foot_R
				{
					OFFSET -40.9854 0.0 0.0
					CHANNELS 6 Xposition Yposition Zposition Zrotation Xrotation Yrotation 
					JOINT Toes_R
					{
						OFFSET -11.7543 0.0 0.0
						CHANNELS 6 Xposition Yposition Zposition Zrotation Xrotation Yrotation 
						End Site
						{
							OFFSET 0.0 0.0 0.0
						}
					}
				}
			}
		}
	}
}
MOTION
Frames:	9
Frame Time:	0.0333333
0.000000 0.000000 0.000000 0.000000 0.000000 -0.000000 -0.885686 90.548900 -7.927460 89.035300 -1.903320 9.047390 15.735700 0.000005 -0.000001 89.075600 78.612100 -89.611200 8.984550 -0.406207 -0.000000 15.005400 -0.396369 -1.019840 16.377300 -0.000001 -0.000001 6.327970 -4.631270 3.127930 6.456720 -0.000001 -0.000000 -12.957400 -4.214750 0.798381 12.994200 -0.242716 4.980390 -89.209600 -2.528350 -72.633600 5.348090 -0.000007 -0.000001 -49.279000 -16.963900 -76.436500 24.328600 0.000019 0.000005 45.259700 -2.782040 -92.753700 22.291600 -0.000001 0.000005 36.765300 4.854640 10.270700 12.994500 -0.242716 -4.980390 89.890800 0.567001 -79.101000 -5.348130 -0.000001 -0.000004 -46.717500 -23.987100 -70.893900 -24.328900 0.000322 -0.000009 22.080400 -1.914410 -94.708200 -22.291500 -0.000108 -0.000004 41.873400 5.429030 -3.906030 -2.192480 -6.469440 -0.000000 -175.284000 -11.052300 -8.549820 39.081100 -0.000007 -0.000012 -0.157588 0.234291 33.925800 40.985400 -0.000006 -0.000013 0.263837 4.519870 -66.271700 11.754300 -0.000000 0.000003 -0.000066 -0.000716 -16.605200 -2.192510 6.469440 -0.000001 177.475000 20.083300 172.865000 -39.081100 -0.002282 -0.040193 -0.123640 0.194294 33.157400 -40.985400 0.000008 0.000006 4.794450 10.889800 -67.343400 -11.754300 -0.000006 -0.000006 -0.004067 -0.052137 -18.693900
0.000000 0.000000 0.000000 0.000000 0.000000 -0.000000 -0.871612 90.557500 -7.933750 89.043500 -1.922880 8.933450 15.735700 0.000005 -0.000001 89.055600 78.656700 -89.583200 8.984550 -0.406207 -0.000000 14.916100 -0.401916 -1.003400 16.377300 -0.000001 -0.000001 6.419650 -4.649740 3.196250 6.456720 -0.000001 -0.000000 -13.035500 -4.252450 0.827171 12.994200 -0.242716 4.980390 -89.287800 -2.266510 -72.551500 5.348090 -0.000007 -0.000001 -50.947300 -18.391300 -75.048000 24.328600 0.000019 0.000005 44.695300 -2.664950 -92.690500 22.291600 -0.000001 0.000005 36.782800 4.835990 10.631400 12.994500 -0.242716 -4.980390 89.878300 0.624887 -78.979700 -5.348130 -0.000001 -0.000004 -48.473100 -25.341400 -69.959200 -24.328900 0.000322 -0.000009 21.846200 -1.493650 -93.720600 -22.291500 -0.000108 -0.000004 42.187100 5.421510 -3.650390 -2.192480 -6.469440 -0.000000 -175.318000 -11.082900 -8.640590 39.081100 -0.000007 -0.000012 -0.161930 0.241121 33.884600 40.985400 -0.000006 -0.000013 0.265425 4.496070 -66.254700 11.754300 -0.000000 0.000003 -0.000065 -0.000713 -16.605100 -2.192510 6.469440 -0.000001 177.497000 20.079900 172.753000 -39.081100 -0.002282 -0.040193 -0.126028 0.198226 33.120500 -40.985400 0.000008 0.000006 4.769010 10.905400 -67.310400 -11.754300 -0.000006 -0.000006 -0.004112 -0.052599 -18.712700
0.000000 0.000000 0.000000 0.000000 0.000000 -0.000000 -0.863016 90.566400 -7.926000 89.030900 -1.976910 8.847370 15.735700 0.000005 -0.000001 88.983800 78.682600 -89.492600 8.984550 -0.406207 -0.000000 14.863800 -0.427673 -0.962507 16.377300 -0.000001 -0.000001 6.482080 -4.670860 3.249610 6.456720 -0.000001 -0.000000 -13.142500 -4.291210 0.855004 12.994200 -0.242716 4.980390 -89.339900 -2.086550 -72.438900 5.348090 -0.000007 -0.000001 -53.021800 -20.036900 -73.444100 24.328600 0.000019 0.000005 43.920200 -2.542320 -92.637300 22.291600 -0.000001 0.000005 36.758700 4.823120 10.878100 12.994500 -0.242716 -4.980390 89.872700 0.651722 -78.946100 -5.348130 -0.000001 -0.000004 -50.533000 -26.882400 -69.071300 -24.328900 0.000322 -0.000009 21.516800 -1.082520 -92.744100 -22.291500 -0.000108 -0.000004 42.593600 5.408990 -3.232160 -2.192480 -6.469440 -0.000000 -175.315000 -11.143000 -8.699130 39.081100 -0.000007 -0.000012 -0.159129 0.237247 33.851300 40.985400 -0.000006 -0.000013 0.277781 4.537160 -66.247400 11.754300 -0.000000 0.000003 -0.000073 -0.000788 -16.608000 -2.192510 6.469440 -0.000001 177.551000 20.030500 172.682000 -39.081100 -0.002282 -0.040193 -0.122404 0.193102 33.062100 -40.985400 0.000008 0.000006 4.707580 10.913300 -67.262700 -11.754300 -0.000006 -0.000006 -0.004006 -0.051498 -18.667900
0.000000 0.000000 0.000000 0.000000 0.000000 -0.000000 -0.852251 90.566300 -7.897100 89.038900 -2.081870 8.798470 15.735700 0.000005 -0.000001 89.091000 78.708200 -89.595100 8.984550 -0.406207 -0.000000 14.813500 -0.384582 -0.958781 16.377300 -0.000001 -0.000001 6.583330 -4.712810 3.300330 6.456720 -0.000001 -0.000000 -13.238800 -4.335460 0.933881 12.994200 -0.242716 4.980390 -89.379400 -1.955920 -72.393000 5.348090 -0.000007 -0.000001 -55.365700 -21.818900 -71.813400 24.328600 0.000019 0.000005 43.432600 -2.292100 -92.419000 22.291600 -0.000001 0.000005 36.993700 4.813500 11.061300 12.994500 -0.242716 -4.980390 89.885300 0.587031 -78.941400 -5.348130 -0.000001 -0.000004 -53.008100 -28.524200 -68.087500 -24.328900 0.000322 -0.000009 21.075800 -0.730196 -91.894600 -22.291500 -0.000108 -0.000004 42.915100 5.396030 -2.808840 -2.192480 -6.469440 -0.000000 -175.325000 -11.213800 -8.714310 39.081100 -0.000007 -0.000012 -0.160697 0.239575 33.852400 40.985400 -0.000006 -0.000013 0.265485 4.468490 -66.275400 11.754300 -0.000000 0.000003 -0.000066 -0.000724 -16.605500 -2.192510 6.469440 -0.000001 177.545000 19.967300 172.647000 -39.081100 -0.002282 -0.040193 -0.126356 0.199201 33.058400 -40.985400 0.000008 0.000006 4.641680 10.965600 -67.260900 -11.754300 -0.000006 -0.000006 -0.004042 -0.051878 -18.683400
0.000000 0.000000 0.000000 0.000000 0.000000 -0.000000 -0.847329 90.563500 -7.848150 89.018900 -2.179450 8.757480 15.735700 0.000005 -0.000001 89.162400 78.725400 -89.656100 8.984550 -0.406207 -0.000000 14.779500 -0.355544 -0.941822 16.377300 -0.000001 -0.000001 6.643410 -4.699260 3.375250 6.456720 -0.000001 -0.000000 -13.259500 -4.342640 0.968630 12.994200 -0.242716 4.980390 -89.408100 -1.864300 -72.380700 5.348090 -0.000007 -0.000001 -58.148600 -23.773300 -70.380900 24.328600 0.000019 0.000005 43.243400 -1.931300 -92.052200 22.291600 -0.000001 0.000005 36.734600 4.796220 11.388000 12.994500 -0.242716 -4.980390 89.871200 0.660836 -78.967600 -5.348130 -0.000001 -0.000004 -55.606600 -30.263700 -67.381100 -24.328900 0.000322 -0.000009 20.642200 -0.364565 -90.968300 -22.291500 -0.000108 -0.000004 43.306000 5.379550 -2.284500 -2.192480 -6.469440 -0.000000 -175.312000 -11.258800 -8.731210 39.081100 -0.000007 -0.000012 -0.157451 0.234469 33.882500 40.985400 -0.000006 -0.000013 0.254766 4.400180 -66.323800 11.754300 -0.000000 0.000003 -0.000067 -0.000730 -16.605800 -2.192510 6.469440 -0.000001 177.575000 19.922000 172.626000 -39.081100 -0.002282 -0.040193 -0.126130 0.198752 33.071800 -40.985400 0.000008 0.000006 4.714490 11.014700 -67.311600 -11.754300 -0.000006 -0.000006 -0.004043 -0.051886 -18.683700
0.000000 0.000000 0.000000 0.000000 0.000000 -0.000000 -0.847699 90.558800 -7.791720 89.013000 -2.242760 8.731620 15.735700 0.000005 -0.000001 89.302400 78.753200 -89.782900 8.984550 -0.406207 -0.000000 14.724900 -0.299500 -0.922938 16.377300 -0.000001 -0.000001 6.780840 -4.711980 3.414140 6.456720 -0.000001 -0.000000 -13.299000 -4.361150 1.028090 12.994200 -0.242716 4.980390 -89.431800 -1.794380 -72.426900 5.348090 -0.000007 -0.000001 -61.338000 -25.691500 -69.315000 24.328600 0.000019 0.000005 42.752000 -1.321430 -91.429000 22.291600 -0.000001 0.000005 36.825300 4.785370 11.592000 12.994500 -0.242716 -4.980390 89.862900 0.701165 -78.937800 -5.348130 -0.000001 -0.000004 -58.488900 -32.009200 -66.848300 -24.328900 0.000322 -0.000009 20.235800 -0.027526 -90.075400 -22.291500 -0.000108 -0.000004 43.439300 5.365910 -1.860840 -2.192480 -6.469440 -0.000000 -175.290000 -11.202800 -8.703070 39.081100 -0.000007 -0.000012 -0.162660 0.241993 33.908200 40.985400 -0.000006 -0.000013 0.219858 4.356710 -66.399000 11.754300 -0.000000 0.000003 -0.000068 -0.000741 -16.606200 -2.192510 6.469440 -0.000001 177.584000 19.889100 172.628000 -39.081100 -0.002282 -0.040193 -0.127730 0.201133 33.081800 -40.985400 0.000008 0.000006 4.653680 11.030900 -67.336400 -11.754300 -0.000006 -0.000006 -0.004153 -0.053024 -18.730100
0.000000 0.000000 0.000000 0.000000 0.000000 -0.000000 -0.854441 90.557500 -7.732100 89.019500 -2.246280 8.724650 15.735700 0.000005 -0.000001 89.277200 78.768900 -89.748100 8.984550 -0.406207 -0.000000 14.693500 -0.308182 -0.902702 16.377300 -0.000001 -0.000001 6.878640 -4.710580 3.473050 6.456720 -0.000001 -0.000000 -13.352700 -4.286410 0.984768 12.994200 -0.242716 4.980390 -89.439400 -1.766750 -72.391300 5.348090 -0.000007 -0.000001 -64.944900 -27.529300 -68.720300 24.328600 0.000019 0.000005 41.957200 -0.594068 -90.660600 22.291600 -0.000001 0.000005 37.061600 4.761460 12.036900 12.994500 -0.242716 -4.980390 89.882600 0.602996 -78.980500 -5.348130 -0.000001 -0.000004 -61.740500 -33.709900 -66.534700 -24.328900 0.000322 -0.000009 19.588200 0.250236 -89.297500 -22.291500 -0.000108 -0.000004 43.809500 5.354480 -1.512480 -2.192480 -6.469440 -0.000000 -175.281000 -11.239000 -8.667230 39.081100 -0.000007 -0.000012 -0.165335 0.245939 33.911700 40.985400 -0.000006 -0.000013 0.217546 4.370550 -66.441800 11.754300 -0.000000 0.000003 -0.000074 -0.000793 -16.608200 -2.192510 6.469440 -0.000001 177.579000 19.846700 172.656000 -39.081100 -0.002282 -0.040193 -0.126546 0.199199 33.097100 -40.985400 0.000008 0.000006 4.682630 10.997300 -67.393600 -11.754300 -0.000006 -0.000006 -0.004034 -0.051792 -18.679900
0.000000 0.000000 0.000000 0.000000 0.000000 -0.000000 -0.867704 90.554600 -7.672700 89.016800 -2.193390 8.686930 15.735700 0.000005 -0.000001 89.158700 78.808500 -89.633500 8.984550 -0.406207 -0.000000 14.613400 -0.352842 -0.905010 16.377300 -0.000001 -0.000001 7.074490 -4.689650 3.512310 6.456720 -0.000001 -0.000000 -13.289400 -4.289350 1.024720 12.994200 -0.242716 4.980390 -89.435700 -1.780410 -72.411600 5.348090 -0.000007 -0.000001 -68.546600 -29.235700 -68.504300 24.328600 0.000019 0.000005 40.337700 0.179106 -89.788900 22.291600 -0.000001 0.000005 37.804500 4.729180 12.629100 12.994500 -0.242716 -4.980390 89.879700 0.615905 -78.945700 -5.348130 -0.000001 -0.000004 -65.214700 -35.123900 -66.668400 -24.328900 0.000322 -0.000009 18.739600 0.561409 -88.346400 -22.291500 -0.000108 -0.000004 43.965600 5.350210 -1.383680 -2.192480 -6.469440 -0.000000 -175.288000 -11.228600 -8.691010 39.081100 -0.000007 -0.000012 -0.160959 0.239260 33.930400 40.985400 -0.000006 -0.000013 0.217753 4.369290 -66.476600 11.754300 -0.000000 0.000003 -0.000062 -0.000684 -16.604000 -2.192510 6.469440 -0.000001 177.595000 19.859100 172.649000 -39.081100 -0.002282 -0.040193 -0.126135 0.198315 33.130600 -40.985400 0.000008 0.000006 4.799080 10.919300 -67.482700 -11.754300 -0.000006 -0.000006 -0.004116 -0.052639 -18.714400
0.000000 0.000000 0.000000 0.000000 0.000000 -0.000000 -0.877888 90.555100 -7.608470 89.018000 -2.130320 8.676740 15.735700 0.000005 -0.000001 89.058600 78.861100 -89.535900 8.984550 -0.406207 -0.000000 14.507600 -0.389517 -0.905489 16.377300 -0.000001 -0.000001 7.302100 -4.685650 3.539600 6.456720 -0.000001 -0.000000 -13.103500 -4.316730 1.000190 12.994200 -0.242716 4.980390 -89.424300 -1.816510 -72.412500 5.348090 -0.000007 -0.000001 -72.013400 -30.606400 -68.530700 24.328600 0.000019 0.000005 38.932400 0.842078 -88.957700 22.291600 -0.000001 0.000005 38.793100 4.690840 13.321100 12.994500 -0.242716 -4.980390 89.881100 0.605248 -78.884000 -5.348130 -0.000001 -0.000004 -68.795000 -36.303000 -67.070900 -24.328900 0.000322 -0.000009 17.626600 0.822085 -87.415400 -22.291500 -0.000108 -0.000004 44.246200 5.348030 -1.318730 -2.192480 -6.469440 -0.000000 -175.279000 -11.175000 -8.657290 39.081100 -0.000007 -0.000012 -0.160728 0.238957 33.925900 40.985400 -0.000006 -0.000013 0.213065 4.415790 -66.518500 11.754300 -0.000000 0.000003 -0.000070 -0.000753 -16.606700 -2.192510 6.469440 -0.000001 177.577000 19.864700 172.700000 -39.081100 -0.002282 -0.040193 -0.126152 0.198418 33.120400 -40.985400 0.000008 0.000006 4.741050 10.892200 -67.518400 -11.754300 -0.000006 -0.000006 -0.004052 -0.051983 -18.687700
